With: Pierce Brosnan, Gerard Butler and Maria Bello

Neil en Abby Warner hebben een goed en gelukkig leven. Samen met hun dochter Sophie leiden ze een prettig en zorgeloos bestaan. Hun leven verandert totaal op het moment dat Sophie gekidnapt wordt. Ten einde raad besluiten ze de orders van de kidnapper (Pierce Brosnan) op te volgen, om zo hun dochter terug te krijgen. De moed zakt hen echter in de schoenen wanneer duidelijk wordt dat de man een psychopaat is, die niets te verliezen heeft.

A perfect family's dynamic is ruined by a kidnapper's brutally efficient plot.

------------------ Dutch Friends ------------------

You can find my Friends at: http://www.Film-Test.nl 
                    
------ They got my dutchs subs ---- and more ------

General:

Complete name                    : Butterfly on a Wheel\Butterfly on a Wheel.avi
Format                           : AVI
Format/Info                      : Audio Video Interleave
File size                        : 1.11 GiB
Duration                         : 1h 31mn
Overall bit rate                 : 1 741 Kbps

Video:

Format                           : MPEG-4 Visual
Format profile                   : Simple@L3
Format settings, BVOP            : No
Format settings, QPel            : No
Format settings, GMC             : No warppoints
Format settings, Matrix          : Default (H.263)
Codec ID                         : XVID
Codec ID/Hint                    : XviD
Duration                         : 1h 31mn
Bit rate                         : 1 346 Kbps
Width                            : 720 pixels
Height                           : 304 pixels
Display aspect ratio             : 2.35:1
Frame rate                       : 25.000 fps
Color space                      : YUV
Chroma subsampling               : 4:2:0
Bit depth                        : 8 bits
Scan type                        : Progressive
Bits/(Pixel*Frame)               : 0.246
Stream size                      : 876 MiB (77%)
Writing library                  : XviD 1.1.2 (UTC 2006-11-01)

Audio:

Format                           : AC-3
Format/Info                      : Audio Coding 3
Mode extension                   : CM (complete main)
Codec ID                         : 2000
Duration                         : 1h 31mn
Bit rate mode                    : Constant
Bit rate                         : 384 Kbps
Channel(s)                       : 6 channels
Channel positions                : Front: L C R, Side: L R, LFE
Sampling rate                    : 48.0 KHz
Bit depth                        : 16 bits
Stream size                      : 250 MiB (22%)
Alignment                        : Aligned on interleaves
Interleave, duration             : 32 ms (0.80 video frame)
Interleave, preload duration     : 96 ms

